<svg xmlns="http://www.w3.org/2000/svg" width="24" height="24" viewBox="0 0 24 24">
  <path fill="#2997ff" d="M12 3c-4.006 0-7.267 3.141-7.479 7.092-2.57.463-4.521 2.706-4.521 5.408 0 3.037 2.463 5.5 5.5 5.5h13c2.762 0 5-2.238 5-5 0-2.571-1.936-4.684-4.432-4.957-.903-4.447-4.829-8.043-7.068-8.043zm0 2c1.833 0 4.606 2.838 5.352 6.249l.165.751.762.082c1.566.168 2.721 1.462 2.721 3.018 0 1.654-1.346 3-3 3h-13c-1.93 0-3.5-1.57-3.5-3.5 0-1.833 1.464-3.284 3.255-3.477l.837-.091.109-.833c.234-1.774 1.213-3.657 2.899-3.657z"/>
</svg> 